<mxfile host="app.diagrams.net" modified="2022-01-12T21:34:06.884Z" agent="5.0 (X11; Linux x86_64) AppleWebKit/537.36 (KHTML, like Gecko) Chrome/97.0.4692.71 Safari/537.36" etag="hkX8VDUi0OtSkY82Vkkg" version="16.2.4" type="github">
  <diagram id="x6QPnaQ_Sv-s1HROchGn" name="Page-1">
    <mxGraphModel dx="1422" dy="772" grid="1" gridSize="10" guides="1" tooltips="1" connect="1" arrows="1" fold="1" page="1" pageScale="1" pageWidth="850" pageHeight="1100" math="0" shadow="0">
      <root>
        <mxCell id="0" />
        <mxCell id="1" parent="0" />
        <mxCell id="796ZCLkOJRd4Za5GYOG1-2" value="Sistema Bancario" style="shape=umlFrame;whiteSpace=wrap;html=1;width=320;height=20;" vertex="1" parent="1">
          <mxGeometry x="40" y="60" width="770" height="540" as="geometry" />
        </mxCell>
        <mxCell id="796ZCLkOJRd4Za5GYOG1-18" style="edgeStyle=none;rounded=0;orthogonalLoop=1;jettySize=auto;html=1;entryX=0;entryY=0;entryDx=65;entryDy=180;entryPerimeter=0;endArrow=none;endFill=0;" edge="1" parent="1" source="796ZCLkOJRd4Za5GYOG1-3" target="796ZCLkOJRd4Za5GYOG1-4">
          <mxGeometry relative="1" as="geometry" />
        </mxCell>
        <mxCell id="796ZCLkOJRd4Za5GYOG1-19" value="TCP/IP" style="edgeLabel;html=1;align=center;verticalAlign=middle;resizable=0;points=[];" vertex="1" connectable="0" parent="796ZCLkOJRd4Za5GYOG1-18">
          <mxGeometry x="-0.5722" y="-4" relative="1" as="geometry">
            <mxPoint x="23" as="offset" />
          </mxGeometry>
        </mxCell>
        <mxCell id="796ZCLkOJRd4Za5GYOG1-3" value="Caixa eletronico" style="verticalAlign=top;align=left;spacingTop=8;spacingLeft=2;spacingRight=12;shape=cube;size=10;direction=south;fontStyle=4;html=1;" vertex="1" parent="1">
          <mxGeometry x="70" y="150" width="180" height="120" as="geometry" />
        </mxCell>
        <mxCell id="796ZCLkOJRd4Za5GYOG1-16" style="edgeStyle=none;rounded=0;orthogonalLoop=1;jettySize=auto;html=1;entryX=0;entryY=0;entryDx=65;entryDy=180;entryPerimeter=0;endArrow=none;endFill=0;" edge="1" parent="1" source="796ZCLkOJRd4Za5GYOG1-4" target="796ZCLkOJRd4Za5GYOG1-5">
          <mxGeometry relative="1" as="geometry" />
        </mxCell>
        <mxCell id="796ZCLkOJRd4Za5GYOG1-17" value="TCP/IP" style="edgeLabel;html=1;align=center;verticalAlign=middle;resizable=0;points=[];" vertex="1" connectable="0" parent="796ZCLkOJRd4Za5GYOG1-16">
          <mxGeometry x="-0.3685" y="2" relative="1" as="geometry">
            <mxPoint as="offset" />
          </mxGeometry>
        </mxCell>
        <mxCell id="796ZCLkOJRd4Za5GYOG1-4" value="Firewall" style="verticalAlign=top;align=left;spacingTop=8;spacingLeft=2;spacingRight=12;shape=cube;size=10;direction=south;fontStyle=4;html=1;" vertex="1" parent="1">
          <mxGeometry x="320" y="140" width="180" height="120" as="geometry" />
        </mxCell>
        <mxCell id="796ZCLkOJRd4Za5GYOG1-10" style="edgeStyle=none;rounded=0;orthogonalLoop=1;jettySize=auto;html=1;entryX=0;entryY=0;entryDx=0;entryDy=85;entryPerimeter=0;endArrow=none;endFill=0;" edge="1" parent="1" source="796ZCLkOJRd4Za5GYOG1-5" target="796ZCLkOJRd4Za5GYOG1-6">
          <mxGeometry relative="1" as="geometry" />
        </mxCell>
        <mxCell id="796ZCLkOJRd4Za5GYOG1-13" value="&lt;span style=&quot;color: rgba(0 , 0 , 0 , 0) ; font-family: monospace ; font-size: 0px ; background-color: rgb(248 , 249 , 250)&quot;&gt;%3CmxGraphModel%3E%3Croot%3E%3CmxCell%20id%3D%220%22%2F%3E%3CmxCell%20id%3D%221%22%20parent%3D%220%22%2F%3E%3CmxCell%20id%3D%222%22%20value%3D%22TCP%2FIP%22%20style%3D%22edgeLabel%3Bhtml%3D1%3Balign%3Dcenter%3BverticalAlign%3Dmiddle%3Bresizable%3D0%3Bpoints%3D%5B%5D%3B%22%20vertex%3D%221%22%20connectable%3D%220%22%20parent%3D%221%22%3E%3CmxGeometry%20x%3D%22499.9397728615861%22%20y%3D%22394.94647589727833%22%20as%3D%22geometry%22%2F%3E%3C%2FmxCell%3E%3C%2Froot%3E%3C%2FmxGraphModel%3E&lt;/span&gt;" style="edgeLabel;html=1;align=center;verticalAlign=middle;resizable=0;points=[];" vertex="1" connectable="0" parent="796ZCLkOJRd4Za5GYOG1-10">
          <mxGeometry x="-0.5439" y="1" relative="1" as="geometry">
            <mxPoint as="offset" />
          </mxGeometry>
        </mxCell>
        <mxCell id="796ZCLkOJRd4Za5GYOG1-14" value="&lt;span style=&quot;color: rgba(0 , 0 , 0 , 0) ; font-family: monospace ; font-size: 0px ; background-color: rgb(248 , 249 , 250)&quot;&gt;%3CmxGraphModel%3E%3Croot%3E%3CmxCell%20id%3D%220%22%2F%3E%3CmxCell%20id%3D%221%22%20parent%3D%220%22%2F%3E%3CmxCell%20id%3D%222%22%20value%3D%22TCP%2FIP%22%20style%3D%22edgeLabel%3Bhtml%3D1%3Balign%3Dcenter%3BverticalAlign%3Dmiddle%3Bresizable%3D0%3Bpoints%3D%5B%5D%3B%22%20vertex%3D%221%22%20connectable%3D%220%22%20parent%3D%221%22%3E%3CmxGeometry%20x%3D%22499.9397728615861%22%20y%3D%22394.94647589727833%22%20as%3D%22geometry%22%2F%3E%3C%2FmxCell%3E%3C%2Froot%3E%3C%2FmxGraphModel%3TCP&lt;/span&gt;" style="edgeLabel;html=1;align=center;verticalAlign=middle;resizable=0;points=[];" vertex="1" connectable="0" parent="796ZCLkOJRd4Za5GYOG1-10">
          <mxGeometry x="0.6258" y="2" relative="1" as="geometry">
            <mxPoint as="offset" />
          </mxGeometry>
        </mxCell>
        <mxCell id="796ZCLkOJRd4Za5GYOG1-15" value="TCP/IP" style="edgeLabel;html=1;align=center;verticalAlign=middle;resizable=0;points=[];" vertex="1" connectable="0" parent="796ZCLkOJRd4Za5GYOG1-10">
          <mxGeometry x="0.3987" y="1" relative="1" as="geometry">
            <mxPoint as="offset" />
          </mxGeometry>
        </mxCell>
        <mxCell id="796ZCLkOJRd4Za5GYOG1-5" value="API Gateway" style="verticalAlign=top;align=left;spacingTop=8;spacingLeft=2;spacingRight=12;shape=cube;size=10;direction=south;fontStyle=4;html=1;" vertex="1" parent="1">
          <mxGeometry x="570" y="140" width="180" height="120" as="geometry" />
        </mxCell>
        <mxCell id="796ZCLkOJRd4Za5GYOG1-6" value="Servidor de Aplicacao" style="verticalAlign=top;align=left;spacingTop=8;spacingLeft=2;spacingRight=12;shape=cube;size=10;direction=south;fontStyle=4;html=1;" vertex="1" parent="1">
          <mxGeometry x="560" y="330" width="180" height="120" as="geometry" />
        </mxCell>
        <mxCell id="796ZCLkOJRd4Za5GYOG1-8" style="rounded=0;orthogonalLoop=1;jettySize=auto;html=1;entryX=0;entryY=0;entryDx=65;entryDy=180;entryPerimeter=0;endArrow=none;endFill=0;" edge="1" parent="1" source="796ZCLkOJRd4Za5GYOG1-7" target="796ZCLkOJRd4Za5GYOG1-6">
          <mxGeometry relative="1" as="geometry" />
        </mxCell>
        <mxCell id="796ZCLkOJRd4Za5GYOG1-9" value="TCP/IP" style="edgeLabel;html=1;align=center;verticalAlign=middle;resizable=0;points=[];" vertex="1" connectable="0" parent="796ZCLkOJRd4Za5GYOG1-8">
          <mxGeometry x="-0.5589" y="-2" relative="1" as="geometry">
            <mxPoint x="18" as="offset" />
          </mxGeometry>
        </mxCell>
        <mxCell id="796ZCLkOJRd4Za5GYOG1-7" value="Banco de dados" style="verticalAlign=top;align=left;spacingTop=8;spacingLeft=2;spacingRight=12;shape=cube;size=10;direction=south;fontStyle=4;html=1;" vertex="1" parent="1">
          <mxGeometry x="280" y="330" width="180" height="120" as="geometry" />
        </mxCell>
      </root>
    </mxGraphModel>
  </diagram>
</mxfile>
